<svg xmlns="http://www.w3.org/2000/svg" xmlns:xlink="http://www.w3.org/1999/xlink" width="40" height="40" viewBox="0 0 40 40">
  <defs>
    <clipPath id="clip-path">
      <rect id="Rectangle_1898" data-name="Rectangle 1898" width="24" height="24" transform="translate(3734 5645)" fill="#03045e" stroke="#707070" stroke-width="1"/>
    </clipPath>
  </defs>
  <g id="Group_10941" data-name="Group 10941" transform="translate(-3726 -5637)">
    <circle id="Ellipse_44" data-name="Ellipse 44" cx="20" cy="20" r="20" transform="translate(3726 5637)" fill="#fff"/>
    <g id="Mask_Group_28" data-name="Mask Group 28" clip-path="url(#clip-path)">
      <path id="smartphone" d="M8.693,1.6a1.733,1.733,0,0,0-1.81,1.649v20.7A1.733,1.733,0,0,0,8.693,25.6h9.539a1.733,1.733,0,0,0,1.81-1.649V3.247A1.733,1.733,0,0,0,18.233,1.6Zm8.617.626a.338.338,0,1,1-.338.338A.338.338,0,0,1,17.311,2.224ZM12.321,2.4H14.6a.11.11,0,0,1,0,.22H12.321a.11.11,0,0,1,0-.22ZM8.7,2.52a.109.109,0,0,1,.11.11.11.11,0,1,1-.22,0A.109.109,0,0,1,8.7,2.52Zm.389.008a.106.106,0,0,1,.11.1.113.113,0,0,1-.11.11.106.106,0,0,1-.1-.11A.1.1,0,0,1,9.091,2.529ZM7.484,3.636H19.442V23.061H7.484ZM12.017,23.9h2.892a.332.332,0,0,1,.364.288v.33a.332.332,0,0,1-.364.288H12.017a.332.332,0,0,1-.364-.288v-.33A.332.332,0,0,1,12.017,23.9Z" transform="translate(3732.537 5643.402)" fill="#03045e"/>
    </g>
  </g>
</svg>
