<svg xmlns="http://www.w3.org/2000/svg" xmlns:xlink="http://www.w3.org/1999/xlink" width="40" height="40" viewBox="0 0 40 40">
  <defs>
    <clipPath id="clip-path">
      <rect id="Rectangle_1884" data-name="Rectangle 1884" width="24" height="24" transform="translate(40 244)" fill="#03045e" stroke="#707070" stroke-width="1"/>
    </clipPath>
  </defs>
  <g id="Group_10918" data-name="Group 10918" transform="translate(-32 -236)">
    <circle id="Ellipse_34" data-name="Ellipse 34" cx="20" cy="20" r="20" transform="translate(32 236)" fill="#fff"/>
    <g id="Mask_Group_18" data-name="Mask Group 18" clip-path="url(#clip-path)">
      <g id="sales_1_" data-name="sales (1)" transform="translate(36.941 240.235)">
        <path id="Path_6409" data-name="Path 6409" d="M3.576,20.894a.91.91,0,0,0,1.318,0l3.812-3.812,2.4,2.4a.91.91,0,0,0,1.318,0L24.941,6.965V8.941a.941.941,0,1,0,1.882,0V4.706a.944.944,0,0,0-.941-.941H21.647a.941.941,0,0,0,0,1.882h1.976L11.765,17.506l-2.4-2.4a.91.91,0,0,0-1.318,0L3.576,19.576A.91.91,0,0,0,3.576,20.894Z" fill="#03045e"/>
        <path id="Path_6410" data-name="Path 6410" d="M24,25.412V16a2.353,2.353,0,0,0-4.706,0v9.412a2.353,2.353,0,0,0,4.706,0Zm-2.824,0V16a.471.471,0,0,1,.941,0v9.412a.471.471,0,0,1-.941,0Zm-2.824,0V21.647a2.353,2.353,0,0,0-4.706,0v3.765a2.353,2.353,0,0,0,4.706,0Zm-2.824,0V21.647a.471.471,0,1,1,.941,0v3.765a.471.471,0,1,1-.941,0Zm-2.824,0V24A2.353,2.353,0,1,0,8,24v1.412a2.353,2.353,0,1,0,4.706,0Zm-2.824,0V24a.471.471,0,1,1,.941,0v1.412a.471.471,0,1,1-.941,0ZM8,8.471h5.176a.941.941,0,0,0,0-1.882H8A.941.941,0,0,0,8,8.471ZM8,5.647H9.882a.941.941,0,0,0,0-1.882H8A.941.941,0,0,0,8,5.647Zm8.8,1.365c-.047-.047-.047-.094-.094-.141a1,1,0,0,0-1.318,0c-.047.047-.094.094-.094.141-.047.047-.047.094-.094.188-.047.047-.047.094-.047.188v.376c0,.047.047.094.047.188,0,.047.047.094.094.141s.047.094.094.141A.9.9,0,0,0,16,8.471a.929.929,0,0,0,.659-.282c.047-.047.094-.094.094-.141.047-.047.047-.094.094-.141s.047-.094.047-.188V7.341c0-.047-.047-.094-.047-.188C16.847,7.106,16.8,7.059,16.8,7.012Z" fill="#03045e"/>
      </g>
    </g>
  </g>
</svg>
