<svg id="Layer_2" data-name="Layer 2" xmlns="http://www.w3.org/2000/svg" width="27" height="24" viewBox="0 0 27 24">
  <g id="arrow-back">
    <rect id="Rectangle_1569" data-name="Rectangle 1569" width="24" height="27" transform="translate(27) rotate(90)" opacity="0"/>
    <path id="Path_1663" data-name="Path 1663" d="M21.813,11H7.729l4.311-4.36a.9.9,0,0,0-.154-1.41,1.347,1.347,0,0,0-1.674.13l-5.937,6a1.17,1.17,0,0,0-.107.15c0,.05,0,.08-.083.13a.821.821,0,0,0,0,.72c0,.05,0,.08.083.13a1.17,1.17,0,0,0,.107.15l5.938,6a1.287,1.287,0,0,0,.914.36,1.33,1.33,0,0,0,.76-.23.963.963,0,0,0,.425-.678.9.9,0,0,0-.27-.732L7.729,13H21.813A1.106,1.106,0,0,0,23,12,1.106,1.106,0,0,0,21.813,11Z"/>
  </g>
</svg>
