<svg xmlns="http://www.w3.org/2000/svg" xmlns:xlink="http://www.w3.org/1999/xlink" width="40" height="40" viewBox="0 0 40 40">
  <defs>
    <clipPath id="clip-path">
      <rect id="Rectangle_1885" data-name="Rectangle 1885" width="24" height="24" transform="translate(40 330)" fill="#03045e" stroke="#03045e" stroke-width="1"/>
    </clipPath>
  </defs>
  <g id="Group_10919" data-name="Group 10919" transform="translate(-32 -322)">
    <circle id="Ellipse_35" data-name="Ellipse 35" cx="20" cy="20" r="20" transform="translate(32 322)" fill="#fff"/>
    <g id="Mask_Group_19" data-name="Mask Group 19" clip-path="url(#clip-path)">
      <path id="category_1_" data-name="category (1)" d="M15.947,0h3.646a2.745,2.745,0,0,1,2.733,2.757V6.434a2.746,2.746,0,0,1-2.733,2.757H15.947a2.746,2.746,0,0,1-2.734-2.757V2.757A2.746,2.746,0,0,1,15.947,0ZM2.734,0H6.379A2.746,2.746,0,0,1,9.113,2.757V6.434A2.746,2.746,0,0,1,6.379,9.192H2.734A2.746,2.746,0,0,1,0,6.434V2.757A2.746,2.746,0,0,1,2.734,0Zm0,13.134H6.379a2.746,2.746,0,0,1,2.734,2.759v3.676a2.746,2.746,0,0,1-2.734,2.757H2.734A2.746,2.746,0,0,1,0,19.568V15.892A2.746,2.746,0,0,1,2.734,13.134Zm13.213,0h3.646a2.746,2.746,0,0,1,2.733,2.759v3.676a2.745,2.745,0,0,1-2.733,2.757H15.947a2.746,2.746,0,0,1-2.734-2.757V15.892A2.746,2.746,0,0,1,15.947,13.134Z" transform="translate(40.837 330.837)" fill="none" stroke="#03045e" stroke-linecap="round" stroke-linejoin="round" stroke-width="1.674" fill-rule="evenodd"/>
    </g>
  </g>
</svg>
