<svg xmlns="http://www.w3.org/2000/svg" xmlns:xlink="http://www.w3.org/1999/xlink" width="40" height="40" viewBox="0 0 40 40">
  <defs>
    <clipPath id="clip-path">
      <rect id="Rectangle_1899" data-name="Rectangle 1899" width="24" height="24" transform="translate(3912 5645)" fill="#03045e" stroke="#707070" stroke-width="1"/>
    </clipPath>
  </defs>
  <g id="Group_10943" data-name="Group 10943" transform="translate(-3904 -5637)">
    <circle id="Ellipse_48" data-name="Ellipse 48" cx="20" cy="20" r="20" transform="translate(3904 5637)" fill="#fff"/>
    <g id="Mask_Group_30" data-name="Mask Group 30" clip-path="url(#clip-path)">
      <g id="electricity" transform="translate(3911.202 5644.203)">
        <path id="Path_6424" data-name="Path 6424" d="M-789.743,1136.314a.4.4,0,0,0-.267.1l-5.349,4.8a.4.4,0,0,0-.107.441.4.4,0,0,0,.374.257h16.8a.4.4,0,0,0,.374-.257.4.4,0,0,0-.107-.441l-5.325-4.8a.4.4,0,0,0-.266-.1h-6.125Zm.154.8h5.817l4.437,4h-14.713Z" transform="translate(799.491 -1125.119)" fill="#03045e"/>
        <path id="Path_6425" data-name="Path 6425" d="M-789.743,1131.515a.4.4,0,0,0-.267.1l-5.349,4.8a.4.4,0,0,0-.107.441.4.4,0,0,0,.374.257h16.8a.4.4,0,0,0,.374-.257.4.4,0,0,0-.107-.441l-5.325-4.8a.4.4,0,0,0-.266-.1h-6.125Zm.152.8h5.819l4.437,4h-14.714Z" transform="translate(799.491 -1125.119)" fill="#03045e"/>
        <path id="Path_6426" data-name="Path 6426" d="M-798.692,1149.112v.8h24v-.8Z" transform="translate(799.491 -1125.119)" fill="#03045e" fill-rule="evenodd"/>
        <path id="Path_6427" data-name="Path 6427" d="M-787.893,1125.916a.4.4,0,0,0-.383.282l-1.6,5.2a.4.4,0,0,0-.017.119v9.9l-3.958,7.915a.4.4,0,0,0,.017.39.4.4,0,0,0,.341.19h13.6a.4.4,0,0,0,.341-.19.4.4,0,0,0,.017-.39l-3.957-7.914v-9.9a.4.4,0,0,0-.018-.119l-1.6-5.2a.4.4,0,0,0-.382-.281h-2.4Zm.3.8h1.809l1.495,4.859v9.939a.4.4,0,0,0,.042.178l3.711,7.42h-12.305l3.711-7.42a.4.4,0,0,0,.042-.178v-9.939l1.495-4.858Z" transform="translate(799.491 -1125.119)" fill="#03045e"/>
        <path id="Path_6428" data-name="Path 6428" d="M-789.368,1131.514l-.518.611,5.873,4.99.519-.611Z" transform="translate(799.491 -1125.119)" fill="#03045e" fill-rule="evenodd"/>
        <path id="Path_6429" data-name="Path 6429" d="M-784.013,1131.514l-5.873,4.99.518.611,5.874-4.99Z" transform="translate(799.491 -1125.119)" fill="#03045e" fill-rule="evenodd"/>
        <path id="Path_6430" data-name="Path 6430" d="M-789.893,1131.515v.8h6.4v-.8Zm.525,4.8-.518.61,5.873,4.99.519-.609-5.874-4.99Z" transform="translate(799.491 -1125.119)" fill="#03045e" fill-rule="evenodd"/>
        <path id="Path_6431" data-name="Path 6431" d="M-784.013,1136.314l-5.873,4.991.518.608,5.874-4.989-.519-.609Zm-.042,4.8-8.516,8.223.556.575,8.516-8.223-.556-.576Z" transform="translate(799.491 -1125.119)" fill="#03045e" fill-rule="evenodd"/>
        <path id="Path_6432" data-name="Path 6432" d="M-789.337,1141.118l-.556.575,8.515,8.223.557-.574Zm-5.761-4.676a.4.4,0,0,0-.394.406v.661a.4.4,0,0,0,.4.4.4.4,0,0,0,.4-.4v-.661a.4.4,0,0,0-.117-.289A.4.4,0,0,0-795.1,1136.442Zm1.6,0a.4.4,0,0,0-.394.406v.661a.4.4,0,0,0,.4.4.4.4,0,0,0,.4-.4v-.661a.4.4,0,0,0-.117-.289A.4.4,0,0,0-793.5,1136.442Zm-1.6,4.8a.4.4,0,0,0-.394.406v.661a.4.4,0,0,0,.4.4.4.4,0,0,0,.4-.4v-.661a.4.4,0,0,0-.117-.289A.4.4,0,0,0-795.1,1141.241Zm1.6,0a.4.4,0,0,0-.394.406v.661a.4.4,0,0,0,.4.4.4.4,0,0,0,.4-.4v-.661a.4.4,0,0,0-.117-.289A.4.4,0,0,0-793.5,1141.241Zm15.2-4.8a.4.4,0,0,0-.394.406v.661a.4.4,0,0,0,.4.4.4.4,0,0,0,.4-.4v-.661a.4.4,0,0,0-.117-.289A.4.4,0,0,0-778.3,1136.442Zm-1.6,0a.4.4,0,0,0-.394.406v.661a.4.4,0,0,0,.4.4.4.4,0,0,0,.4-.4v-.661a.4.4,0,0,0-.117-.289A.4.4,0,0,0-779.9,1136.442Zm1.6,4.8a.4.4,0,0,0-.394.406v.661a.4.4,0,0,0,.4.4.4.4,0,0,0,.4-.4v-.661a.4.4,0,0,0-.117-.289A.4.4,0,0,0-778.3,1141.241Zm-1.6,0a.4.4,0,0,0-.394.406v.661a.4.4,0,0,0,.4.4.4.4,0,0,0,.4-.4v-.661a.4.4,0,0,0-.117-.289A.4.4,0,0,0-779.9,1141.241Z" transform="translate(799.491 -1125.119)" fill="#03045e" fill-rule="evenodd"/>
      </g>
    </g>
  </g>
</svg>
