<svg xmlns="http://www.w3.org/2000/svg" xmlns:xlink="http://www.w3.org/1999/xlink" width="40" height="40" viewBox="0 0 40 40">
  <defs>
    <clipPath id="clip-path">
      <rect id="Rectangle_1892" data-name="Rectangle 1892" width="24" height="24" transform="translate(3837 5400)" fill="#03045e" stroke="#707070" stroke-width="1"/>
    </clipPath>
  </defs>
  <g id="Group_10930" data-name="Group 10930" transform="translate(-3829 -5392)">
    <circle id="Ellipse_39" data-name="Ellipse 39" cx="20" cy="20" r="20" transform="translate(3829 5392)" fill="#fff"/>
    <g id="Mask_Group_23" data-name="Mask Group 23" clip-path="url(#clip-path)">
      <g id="carousel" transform="translate(4428.733 4586.417)">
        <path id="Path_6411" data-name="Path 6411" d="M-578.464,814.353a.373.373,0,0,0-.094.029,46.408,46.408,0,0,0-10.461,6.5.376.376,0,0,0-.1.472,6.485,6.485,0,0,0,.528.844,1.989,1.989,0,0,0,1.338.988,1.944,1.944,0,0,0,1.449-.75,2.875,2.875,0,0,0,.272-.311,3,3,0,0,0,.228.405,3.314,3.314,0,0,0,.539.644,1.174,1.174,0,0,0,.811.344,1.423,1.423,0,0,0,.95-.483,4.27,4.27,0,0,0,.644-.861,3.57,3.57,0,0,0,.222-.455,2.027,2.027,0,0,0,.206.439,2.621,2.621,0,0,0,2.043,1.327,2.105,2.105,0,0,0,1.8-1.138,1.846,1.846,0,0,0,.167-.367,1.9,1.9,0,0,0,.194.361,2.54,2.54,0,0,0,1.893,1.177,2.122,2.122,0,0,0,1.8-.983,1.628,1.628,0,0,0,.211-.411,3.985,3.985,0,0,0,.411.511,4.512,4.512,0,0,0,.789.677,1.56,1.56,0,0,0,.988.305,1.4,1.4,0,0,0,.827-.433,3.99,3.99,0,0,0,.578-.716,7.546,7.546,0,0,0,.533-.972.376.376,0,0,0-.072-.411,46.524,46.524,0,0,0-8.446-6.669.377.377,0,0,0-.25-.061Zm.023.827a45.935,45.935,0,0,1,7.924,6.258,4.134,4.134,0,0,1-.339.616,3.39,3.39,0,0,1-.466.583.779.779,0,0,1-.378.228.953.953,0,0,1-.511-.189,3.871,3.871,0,0,1-.655-.561,7.649,7.649,0,0,1-.716-.883.376.376,0,0,0-.367-.162.376.376,0,0,0-.3.262,3.005,3.005,0,0,1-.389.761,1.337,1.337,0,0,1-1.161.666,1.814,1.814,0,0,1-1.316-.861,4.08,4.08,0,0,1-.478-.883.376.376,0,0,0-.367-.25.376.376,0,0,0-.35.273,3.9,3.9,0,0,1-.411.905,1.369,1.369,0,0,1-1.138.783,1.869,1.869,0,0,1-1.444-.983,4.249,4.249,0,0,1-.472-1.005.376.376,0,0,0-.345-.268.376.376,0,0,0-.366.239,8.161,8.161,0,0,1-.522,1.077,3.664,3.664,0,0,1-.522.711.77.77,0,0,1-.444.261.525.525,0,0,1-.289-.155,2.732,2.732,0,0,1-.416-.5,6.115,6.115,0,0,1-.439-.783.376.376,0,0,0-.3-.22.376.376,0,0,0-.343.148,5.942,5.942,0,0,1-.566.644,1.969,1.969,0,0,1-.861.539,2.025,2.025,0,0,1-.794-.689,3.231,3.231,0,0,1-.283-.45,45.493,45.493,0,0,1,9.829-6.114Z" fill="#03045e"/>
        <path id="Path_6412" data-name="Path 6412" d="M-578.809,814.559l-6.969,6.68.522.544,6.969-6.686Z" fill="#03045e"/>
        <path id="Path_6413" data-name="Path 6413" d="M-578.9,814.7l-3.559,5.947.644.389,3.559-5.953Z" fill="#03045e"/>
        <path id="Path_6414" data-name="Path 6414" d="M-578.042,814.637l-.75.05.466,6.586.75-.055Z" fill="#03045e"/>
        <path id="Path_6415" data-name="Path 6415" d="M-578.109,814.714l-.616.428,4.57,6.58.616-.433Zm-9.373,7.852-2.588,6.3.7.283,2.582-6.3Zm3.221.339-.8,7.663.744.078.8-7.663Z" fill="#03045e"/>
        <path id="Path_6416" data-name="Path 6416" d="M-591.336,827.514a.376.376,0,0,0-.339.339s-.045.411-.055.922a4.29,4.29,0,0,0,.183,1.583.93.93,0,0,0,.439.511,3.128,3.128,0,0,0,2.26.194,1.148,1.148,0,0,0,.683-.516,1.839,1.839,0,0,0,.206-.855,4.732,4.732,0,0,0,.011-.483.376.376,0,0,0-.35-.361l-2.671-.189c.014-.37.044-.722.044-.722a.376.376,0,0,0-.1-.31.376.376,0,0,0-.307-.112Zm.422,1.9,2.2.15c0,.036,0,.033,0,.072a2.105,2.105,0,0,1-.105.522.484.484,0,0,1-.244.178,2.438,2.438,0,0,1-1.7-.139.28.28,0,0,1-.089-.117,3.735,3.735,0,0,1-.067-.666Zm4.531-.244a.376.376,0,0,0-.333.339s-.05.417-.061.927a4.255,4.255,0,0,0,.183,1.577.939.939,0,0,0,.439.516h.006a3.114,3.114,0,0,0,2.254.194,1.157,1.157,0,0,0,.683-.522,1.814,1.814,0,0,0,.206-.85,4.732,4.732,0,0,0,.011-.483.376.376,0,0,0-.35-.366l-2.671-.183c.014-.37.044-.727.044-.727a.376.376,0,0,0-.1-.31.376.376,0,0,0-.307-.112Zm.422,1.91,2.2.15c0,.034,0,.03,0,.067a2.1,2.1,0,0,1-.105.522.482.482,0,0,1-.244.178,2.437,2.437,0,0,1-1.7-.139.28.28,0,0,1-.089-.117,3.669,3.669,0,0,1-.067-.661Zm14.837-8.129-.722.211,1.738,5.947.722-.211Zm-4.076-.05-.75.078.8,7.663.744-.078Z" fill="#03045e"/>
        <path id="Path_6417" data-name="Path 6417" d="M-568.214,827.514a.376.376,0,0,0-.252.143.376.376,0,0,0-.076.279s.029.352.044.722l-2.671.189a.376.376,0,0,0-.35.361,4.732,4.732,0,0,0,.011.483,1.849,1.849,0,0,0,.206.855,1.16,1.16,0,0,0,.689.516,3.126,3.126,0,0,0,2.254-.194.928.928,0,0,0,.439-.511,4.3,4.3,0,0,0,.183-1.583c-.011-.51-.055-.922-.055-.922a.376.376,0,0,0-.139-.259.376.376,0,0,0-.283-.08Zm-.339,1.9a3.892,3.892,0,0,1-.067.666.3.3,0,0,1-.089.117,2.435,2.435,0,0,1-1.7.139.475.475,0,0,1-.244-.178,2.1,2.1,0,0,1-.105-.522c0-.039,0-.036,0-.072Zm-4.62-.244a.376.376,0,0,0-.322.422s.029.357.044.727l-2.671.183a.376.376,0,0,0-.35.366,4.767,4.767,0,0,0,.011.483,1.827,1.827,0,0,0,.206.85,1.158,1.158,0,0,0,.683.522,3.128,3.128,0,0,0,2.26-.194.938.938,0,0,0,.439-.516,4.272,4.272,0,0,0,.183-1.577c-.011-.51-.055-.927-.055-.927a.376.376,0,0,0-.141-.261.376.376,0,0,0-.286-.078Zm-.333,1.91a3.824,3.824,0,0,1-.067.661.3.3,0,0,1-.089.117,2.435,2.435,0,0,1-1.7.139.476.476,0,0,1-.244-.178,2.1,2.1,0,0,1-.105-.522c0-.036,0-.033,0-.067Zm-7.063-8.324-.75.023.344,12.066.75-.023Zm2.365-.405-.75.05c.329,5,.223,8.267.328,12.394l.755-.017c-.1-4.1,0-7.392-.333-12.427Z" fill="#03045e"/>
        <path id="Path_6418" data-name="Path 6418" d="M-578.664,824.121a14.985,14.985,0,0,0-2.526,1.183l.383.644a14.305,14.305,0,0,1,2.41-1.122Zm.028,2.427a6.245,6.245,0,0,0-2.388,1.283l.428.616a6.553,6.553,0,0,1,2.077-1.155Zm.056,2.021a7.729,7.729,0,0,1-2.254,1.249l.189.733a7.885,7.885,0,0,0,2.449-1.338Zm.183,1.96a7.866,7.866,0,0,0-2.36,1.521l.455.594a8.389,8.389,0,0,1,2.11-1.394Zm.117,2.438-2.3.516.161.739,2.3-.522Zm8.574,1.4c-6.6.049-13.575.408-19.729.133a.376.376,0,0,0-.389.333l-.167,1.566a.376.376,0,0,0,.093.291.376.376,0,0,0,.279.126c6.568-.033,12.742-.259,19.674-.1a.376.376,0,0,0,.378-.322l.233-1.6a.376.376,0,0,0-.089-.3.376.376,0,0,0-.283-.129Zm-.433.755-.128.839c-6.666-.14-12.648.061-18.935.1l.089-.811c5.986.245,12.645-.068,18.974-.128Zm-18.5-14.293.055.75a128.129,128.129,0,0,1,18.324.167l.061-.75a129.008,129.008,0,0,0-18.441-.167Z" fill="#03045e"/>
      </g>
    </g>
  </g>
</svg>
