<svg xmlns="http://www.w3.org/2000/svg" xmlns:xlink="http://www.w3.org/1999/xlink" width="40" height="40" viewBox="0 0 40 40">
  <defs>
    <clipPath id="clip-path">
      <rect id="Rectangle_1894" data-name="Rectangle 1894" width="24" height="24" transform="translate(3990 5400)" fill="#03045e" stroke="#707070" stroke-width="1"/>
    </clipPath>
  </defs>
  <g id="Group_10932" data-name="Group 10932" transform="translate(-3982 -5392)">
    <circle id="Ellipse_41" data-name="Ellipse 41" cx="20" cy="20" r="20" transform="translate(3982 5392)" fill="#fff"/>
    <g id="Mask_Group_25" data-name="Mask Group 25" clip-path="url(#clip-path)">
      <g id="food_1_" data-name="food (1)" transform="translate(3989.2 5399)">
        <path id="Path_6419" data-name="Path 6419" d="M12.8,5.2a7.6,7.6,0,1,0,7.6,7.6A7.6,7.6,0,0,0,12.8,5.2Zm0,14.4a6.8,6.8,0,1,1,6.8-6.8A6.8,6.8,0,0,1,12.8,19.6Z" fill="#03045e"/>
        <path id="Path_6420" data-name="Path 6420" d="M5.2,8.4v-4H4.4V8H4V4.4H3.2V8H2.8V4.4H2V8H1.6V4.4H.8v6a1.2,1.2,0,0,0,.8,1.132V20.8A1.2,1.2,0,0,0,2.8,22h.4a1.2,1.2,0,0,0,1.2-1.2V11.532A1.2,1.2,0,0,0,5.2,10.4Zm-.8,2a.4.4,0,0,1-.4.4.4.4,0,0,0-.4.4v9.6a.4.4,0,0,1-.4.4H2.8a.4.4,0,0,1-.4-.4V11.2a.4.4,0,0,0-.4-.4.4.4,0,0,1-.4-.4V8.8H4.4ZM24.4,4a3.6,3.6,0,0,0-3.6,3.6v5.2A1.2,1.2,0,0,0,22,14v7.6a.4.4,0,0,0,.4.4h2a.4.4,0,0,0,.4-.4V4.4A.4.4,0,0,0,24.4,4ZM24,21.2H22.8V13.6a.4.4,0,0,0-.4-.4H22a.4.4,0,0,1-.4-.4V7.6A2.8,2.8,0,0,1,24,4.828Z" fill="#03045e"/>
        <rect id="Rectangle_1901" data-name="Rectangle 1901" width="0.8" height="6" transform="translate(22 6.4)" fill="#03045e"/>
        <path id="Path_6421" data-name="Path 6421" d="M12.8,8.8a4,4,0,1,0,4,4A4,4,0,0,0,12.8,8.8Zm0,7.2A3.2,3.2,0,1,1,16,12.8,3.2,3.2,0,0,1,12.8,16Z" fill="#03045e"/>
      </g>
    </g>
  </g>
</svg>
