<svg xmlns="http://www.w3.org/2000/svg" xmlns:xlink="http://www.w3.org/1999/xlink" width="40" height="40" viewBox="0 0 40 40">
  <defs>
    <clipPath id="clip-path">
      <rect id="Rectangle_1891" data-name="Rectangle 1891" width="24" height="24" transform="translate(3734 5400)" fill="#03045e" stroke="#707070" stroke-width="1"/>
    </clipPath>
  </defs>
  <g id="Group_10929" data-name="Group 10929" transform="translate(-3726 -5392)">
    <circle id="Ellipse_38" data-name="Ellipse 38" cx="20" cy="20" r="20" transform="translate(3726 5392)" fill="#fff"/>
    <g id="Mask_Group_22" data-name="Mask Group 22" clip-path="url(#clip-path)">
      <path id="_9" data-name="9" d="M25.2,9.6H20.244l-2.4-4.2a1.2,1.2,0,0,0-2.088,1.2l1.716,3H11.328l1.716-3a1.2,1.2,0,0,0-2.088-1.2l-2.4,4.2H3.6a1.2,1.2,0,0,0-1.2,1.2v6a8.4,8.4,0,0,0,8.4,8.4H18a8.4,8.4,0,0,0,8.4-8.4v-6A1.2,1.2,0,0,0,25.2,9.6ZM24,16.8a6,6,0,0,1-6,6H10.8a6,6,0,0,1-6-6V12H7.2L6.168,13.8A1.2,1.2,0,1,0,8.256,15l1.692-3H18.84l1.716,3a1.2,1.2,0,1,0,2.088-1.2L21.6,12H24Z" transform="translate(3731.6 5397.002)" fill="#03045e"/>
    </g>
  </g>
</svg>
