<svg id="Layer_1" data-name="Layer 1" xmlns="http://www.w3.org/2000/svg" viewBox="0 0 370.72 331.4"><title>house</title><path d="M314.72,391.27c5.81-7.21,13.43-12.42,20.37-18.36q65-55.61,130.19-111,13.91-11.83,27.83-23.65c5.11-4.3,8.66-4.3,13.78.05q24.14,20.47,48.18,41a19.71,19.71,0,0,0,1.65,1.4c.58.39,1.33,1,1.85.88,1.06-.25.69-1.39.7-2.17,0-6.39,0-12.78,0-19.17,0-1.56,0-3.13,0-4.7.19-9.07,3.28-12.11,12.32-12.12,10.61,0,21.22,0,31.83,0,7.73,0,11.07,3.34,11.07,11,0,23.75.05,47.5,0,71.26a8.07,8.07,0,0,0,3.13,6.81q30.75,26.08,61.38,52.32a44.63,44.63,0,0,1,3.75,3.39c3.41,3.6,3.6,8.38.56,11.73a8.25,8.25,0,0,1-11.45.66c-4.83-3.81-9.44-7.88-14.12-11.87q-76.54-65.19-153.11-130.34c-5.41-4.6-3.35-5-10,.64q-82.51,70.17-165,140.4c-5.91,5-10.79,4.16-14.88-2.44Zm282.9-103.42c0-7.94-.07-15.89,0-23.83,0-2.65-1-3.65-3.61-3.57-4.82.13-9.64.11-14.45,0-2.39-.05-3.48.67-3.46,3.27.1,10.36.07,20.71,0,31.06a4.81,4.81,0,0,0,1.8,4.09c5.64,4.69,11.22,9.46,16.85,14.17.62.52,1.54,1.3,2.1,1.15,1.18-.32.69-1.62.7-2.5C597.64,303.74,597.62,295.8,597.62,287.85Z" transform="translate(-314.72 -235.07)"/><path d="M499.59,566.47q-56.79,0-113.59,0a38.08,38.08,0,0,1-5.75-.43c-4.2-.64-6.62-3.27-7.39-7.35a29.31,29.31,0,0,1-.36-5.39q0-68.91,0-137.83c0-1.09,0-2.17,0-3.26,0-.69.2-1.57-.58-1.94s-1.3.37-1.83.81c-1.83,1.57-3.64,3.16-5.48,4.73-4.7,4-9.42,4-12.77.14s-2.61-8.8,1.9-12.71c8.73-7.59,17.58-15.06,26.38-22.58Q436.05,332.84,492,285c6.24-5.34,9.59-5.42,15.79-.12L645,402.13a31.11,31.11,0,0,1,2.4,2.2c3.48,3.66,3.72,8.15.64,11.71s-7.53,3.81-11.66.64c-2.19-1.69-4.21-3.61-6.34-5.39-.6-.5-1.14-1.52-2.09-1s-.52,1.51-.56,2.31c-.06,1.08,0,2.17,0,3.25V553a27,27,0,0,1-.54,6.46,8.21,8.21,0,0,1-6.49,6.5,26.59,26.59,0,0,1-6.47.55ZM610.5,471.58c0-24.48,0-48.95,0-73.43a7.28,7.28,0,0,0-2.86-6.17q-52.53-44.6-104.88-89.37c-2.28-1.95-3.53-1.77-5.68.07Q444.89,347.34,392.5,391.8a7.63,7.63,0,0,0-3.12,6.41q.12,73.43,0,146.85c0,3.45.94,4.56,4.47,4.53,17.48-.16,35-.07,52.44-.08,5.2,0,5.22,0,5.22-5.16q0-41.6,0-83.2a43.7,43.7,0,0,1,.45-6.47c.68-4.54,3.52-7.19,8.06-7.2q40-.11,79.94,0c4.39,0,7.16,2.5,8,6.88a32.83,32.83,0,0,1,.5,6.1q0,42.15,0,84.28c0,4.76,0,4.77,4.85,4.77,17.6,0,35.21-.09,52.81.08,3.6,0,4.43-1.22,4.41-4.59C610.44,520.53,610.5,496.05,610.5,471.58ZM468.36,506.71c0,12.77.1,25.54-.07,38.31,0,3.36.79,4.61,4.39,4.57,18.19-.17,36.38-.14,54.57,0,3.2,0,4.41-.74,4.39-4.2q-.21-38.67,0-77.34c0-3.07-.74-4.22-4-4.2q-27.64.21-55.29,0c-3.3,0-4,1.15-4,4.21C468.44,480.93,468.36,493.82,468.36,506.71Z" transform="translate(-314.72 -235.07)"/></svg>