<svg xmlns="http://www.w3.org/2000/svg" xmlns:xlink="http://www.w3.org/1999/xlink" width="40" height="40" viewBox="0 0 40 40">
  <defs>
    <clipPath id="clip-path">
      <rect id="Rectangle_1886" data-name="Rectangle 1886" width="24" height="24" transform="translate(40 416)" fill="#03045e" stroke="#707070" stroke-width="1"/>
    </clipPath>
  </defs>
  <g id="Group_10920" data-name="Group 10920" transform="translate(-32 -408)">
    <circle id="Ellipse_37" data-name="Ellipse 37" cx="20" cy="20" r="20" transform="translate(32 408)" fill="#fff"/>
    <g id="Mask_Group_20" data-name="Mask Group 20" clip-path="url(#clip-path)">
      <path id="_57_Write_Basic_Essential_Pencil" data-name="57  Write, Basic, Essential, Pencil" d="M21.171,17.784h1.694v4.234a2.541,2.541,0,0,1-2.541,2.541H4.234a2.541,2.541,0,0,1-2.541-2.541V5.081A2.541,2.541,0,0,1,4.234,2.541h16.09a2.541,2.541,0,0,1,2.541,2.541v.974H21.171V5.081a.847.847,0,0,0-.847-.847H4.234a.847.847,0,0,0-.847.847V22.018a.847.847,0,0,0,.847.847h16.09a.847.847,0,0,0,.847-.847ZM25.694,10.3a2.541,2.541,0,0,1-.745,1.8L23.6,13.44l-6.411,6.419a.847.847,0,0,1-.483.237l-2.795.406h-.127a.865.865,0,0,1-.838-.974l.406-2.795a.847.847,0,0,1,.237-.483L20.011,9.84l1.338-1.372a2.617,2.617,0,0,1,3.6,0,2.541,2.541,0,0,1,.745,1.829Zm-3.887,2.541-1.194-1.194-5.623,5.615-.2,1.372,1.406-.2ZM24,10.3A.851.851,0,0,0,22.552,9.7l-.745.745L23,11.644l.745-.745A.847.847,0,0,0,24,10.3ZM11.856,20.324V18.631H5.928v1.694Z" transform="translate(38.306 414.45)" fill="#03045e"/>
    </g>
  </g>
</svg>
