<svg xmlns="http://www.w3.org/2000/svg" xmlns:xlink="http://www.w3.org/1999/xlink" width="32" height="32" viewBox="0 0 32 32">
  <defs>
    <clipPath id="clip-path">
      <rect id="Rectangle_1851" data-name="Rectangle 1851" width="16" height="16" transform="translate(36 347)" fill="#fff" stroke="#fff" stroke-width="1"/>
    </clipPath>
  </defs>
  <g id="Group_10872" data-name="Group 10872" transform="translate(-28 -339)">
    <circle id="Ellipse_14" data-name="Ellipse 14" cx="16" cy="16" r="16" transform="translate(28 339)" fill="#03045e"/>
    <g id="Mask_Group_17" data-name="Mask Group 17" clip-path="url(#clip-path)">
      <g id="transport_1_" data-name="transport (1)" transform="translate(107.868 243.468)">
        <path id="Path_6403" data-name="Path 6403" d="M-70.868,107.032a1,1,0,0,0-1,1v5.5a1,1,0,0,0,1,1h.779v-.5h-.779a.494.494,0,0,1-.5-.5v-5.5a.494.494,0,0,1,.5-.5h11.5a2.988,2.988,0,0,1,3,3v3a.494.494,0,0,1-.5.5h-1.244v.5h1.244a1,1,0,0,0,1-1v-3a3.5,3.5,0,0,0-3.5-3.5h-11.5Zm3.154,7v.5h7.127v-.5Z" fill="#fff" fill-rule="evenodd"/>
        <path id="Path_6404" data-name="Path 6404" d="M-68.868,113.032a1.5,1.5,0,0,0-1.5,1.5,1.5,1.5,0,0,0,1.5,1.5,1.5,1.5,0,0,0,1.5-1.5A1.5,1.5,0,0,0-68.868,113.032Zm0,.5a1,1,0,0,1,1,1,1,1,0,0,1-1,1,1,1,0,0,1-1-1A1,1,0,0,1-68.868,113.532Zm9.5-.5a1.5,1.5,0,0,0-1.5,1.5,1.5,1.5,0,0,0,1.5,1.5,1.5,1.5,0,0,0,1.5-1.5A1.5,1.5,0,0,0-59.365,113.032Zm0,.5a1,1,0,0,1,1,1,1,1,0,0,1-1,1,1,1,0,0,1-1-1A1,1,0,0,1-59.365,113.532Z" fill="#fff"/>
        <path id="Path_6405" data-name="Path 6405" d="M-69.868,108.032a1,1,0,0,0-1,1v2a1,1,0,0,0,1,1h3a1,1,0,0,0,1-1v-2a1,1,0,0,0-1-1Zm0,.5h3a.494.494,0,0,1,.5.5v2a.494.494,0,0,1-.5.5h-3a.494.494,0,0,1-.5-.5v-2A.494.494,0,0,1-69.868,108.532Zm5.5-.5a1,1,0,0,0-1,1v2a1,1,0,0,0,1,1h3a1,1,0,0,0,1-1v-2a1,1,0,0,0-1-1Zm0,.5h3a.494.494,0,0,1,.5.5v2a.494.494,0,0,1-.5.5h-3a.494.494,0,0,1-.5-.5v-2A.494.494,0,0,1-64.368,108.532Zm5.5-.5a1,1,0,0,0-1,1v2a1,1,0,0,0,1,1H-56.2v-.5h-2.669a.494.494,0,0,1-.5-.5v-2a.494.494,0,0,1,.5-.5H-57v-.5Z" fill="#fff"/>
        <path id="Path_6406" data-name="Path 6406" d="M-68.618,114.532a.25.25,0,0,1-.25.25.25.25,0,0,1-.25-.25.25.25,0,0,1,.25-.25A.25.25,0,0,1-68.618,114.532Zm9.5,0a.25.25,0,0,1-.25.25.25.25,0,0,1-.25-.25.25.25,0,0,1,.25-.25A.25.25,0,0,1-59.116,114.532Z" fill="#fff"/>
      </g>
    </g>
  </g>
</svg>
