<svg xmlns="http://www.w3.org/2000/svg" xmlns:xlink="http://www.w3.org/1999/xlink" width="40" height="40" viewBox="0 0 40 40">
  <defs>
    <clipPath id="clip-path">
      <rect id="Rectangle_1895" data-name="Rectangle 1895" width="24" height="24" transform="translate(3833 5484)" fill="#03045e" stroke="#707070" stroke-width="1"/>
    </clipPath>
  </defs>
  <g id="Group_10933" data-name="Group 10933" transform="translate(-3825 -5476)">
    <circle id="Ellipse_43" data-name="Ellipse 43" cx="20" cy="20" r="20" transform="translate(3825 5476)" fill="#fff"/>
    <g id="Mask_Group_27" data-name="Mask Group 27" clip-path="url(#clip-path)">
      <g id="home_4_" data-name="home (4)" transform="translate(3833.634 5484)">
        <path id="Path_6422" data-name="Path 6422" d="M9.583,22.086H4.744a2.861,2.861,0,0,1-2.851-2.84V9.62a1.778,1.778,0,0,1,.642-1.357l.852-.631a.947.947,0,0,0-1.094-1.5h0L1.42,6.78A3.661,3.661,0,0,0,0,9.62v9.636A4.755,4.755,0,0,0,4.744,24H9.583a.947.947,0,0,0,0-1.893Z" fill="#03045e"/>
        <path id="Path_6423" data-name="Path 6423" d="M22.732,9.6a3.692,3.692,0,0,0-1.378-2.84L14.085.963a4.365,4.365,0,0,0-5.47,0l-2.3,1.673A.965.965,0,1,0,7.437,4.2L9.772,2.457a2.483,2.483,0,0,1,3.156,0l7.269,5.8A1.778,1.778,0,0,1,20.87,9.62v9.636a2.84,2.84,0,0,1-2.84,2.84H15.873a.4.4,0,0,1-.4-.4V17.352a2.514,2.514,0,0,0-2.5-2.514H9.814A2.514,2.514,0,0,0,7.3,17.352v1.662a.947.947,0,0,0,1.893,0V17.352a.61.61,0,0,1,.61-.621H12.96a.61.61,0,0,1,.61.61h0V21.7a2.3,2.3,0,0,0,2.3,2.293h2.1a4.744,4.744,0,0,0,4.744-4.744Z" fill="#03045e"/>
      </g>
    </g>
  </g>
</svg>
