<svg xmlns="http://www.w3.org/2000/svg" xmlns:xlink="http://www.w3.org/1999/xlink" width="40" height="40" viewBox="0 0 40 40">
  <defs>
    <clipPath id="clip-path">
      <rect id="Rectangle_1893" data-name="Rectangle 1893" width="24" height="24" transform="translate(3911 5400)" fill="#03045e" stroke="#707070" stroke-width="1"/>
    </clipPath>
  </defs>
  <g id="Group_10931" data-name="Group 10931" transform="translate(-3903 -5392)">
    <circle id="Ellipse_40" data-name="Ellipse 40" cx="20" cy="20" r="20" transform="translate(3903 5392)" fill="#fff"/>
    <g id="Mask_Group_24" data-name="Mask Group 24" clip-path="url(#clip-path)">
      <path id="shopping-cart" d="M22.151,18.248a3.415,3.415,0,0,0,.581-1.317l1.252-8.687A.829.829,0,0,0,23.8,7.59a.8.8,0,0,0-.614-.278H21.5v-1a3.122,3.122,0,0,0-3.1-3.141,3.047,3.047,0,0,0-1.486.385V2.51a2.475,2.475,0,1,0-4.951,0V3.557a3.048,3.048,0,0,0-1.486-.385A3.129,3.129,0,0,0,7.368,6.314v1H5.9L5.373,5.3a3.161,3.161,0,0,0-3.044-2.38H.81a.818.818,0,1,0,0,1.636H2.329A1.54,1.54,0,0,1,3.814,5.717l.678,2.593.008.025,1.009,7.01.234,1.628a3.114,3.114,0,0,0,.582,1.276,2.843,2.843,0,1,0,3.988,1.243h7.848a2.742,2.742,0,0,0-.283,1.235,2.838,2.838,0,1,0,5.677,0A2.88,2.88,0,0,0,22.151,18.248ZM16.909,6.314a1.486,1.486,0,1,1,2.971,0v1H16.909v-1Zm-3.337-3.8a.86.86,0,1,1,1.72,0v4.8h-1.72Zm-4.595,3.8a1.49,1.49,0,1,1,2.98,0v1H8.978v-1ZM7.75,21.962a1.235,1.235,0,1,1,1.221-1.235A1.235,1.235,0,0,1,7.75,21.962Zm1.026-4.106A1.482,1.482,0,0,1,7.33,16.694l-.1-.7h6.023a.818.818,0,1,0,0-1.636H6.989L6.206,8.948H22.252l-1.115,7.706a1.492,1.492,0,0,1-1.454,1.2H8.779Zm11.935,4.106a1.235,1.235,0,1,1,1.228-1.235,1.235,1.235,0,0,1-1.228,1.235Z" transform="translate(3911.008 5400.2)" fill="#03045e" fill-rule="evenodd"/>
    </g>
  </g>
</svg>
