<svg xmlns="http://www.w3.org/2000/svg" xmlns:xlink="http://www.w3.org/1999/xlink" width="40" height="40" viewBox="0 0 40 40">
  <defs>
    <clipPath id="clip-path">
      <rect id="Rectangle_1900" data-name="Rectangle 1900" width="24" height="24" transform="translate(3989 5645)" fill="#03045e" stroke="#707070" stroke-width="1"/>
    </clipPath>
  </defs>
  <g id="Group_10944" data-name="Group 10944" transform="translate(-3981 -5637)">
    <circle id="Ellipse_49" data-name="Ellipse 49" cx="20" cy="20" r="20" transform="translate(3981 5637)" fill="#fff"/>
    <g id="Mask_Group_31" data-name="Mask Group 31" clip-path="url(#clip-path)">
      <g id="wifi" transform="translate(3988.613 5644.613)">
        <circle id="Ellipse_50" data-name="Ellipse 50" cx="2.409" cy="2.409" r="2.409" transform="translate(9.979 17.018)" fill="#03045e"/>
        <path id="Path_6433" data-name="Path 6433" d="M16.788,16.187a1.157,1.157,0,0,1-.817-.336,5.077,5.077,0,0,0-7.167,0A1.161,1.161,0,1,1,7.169,14.2a7.4,7.4,0,0,1,10.436,0,1.161,1.161,0,0,1-.817,1.986Z" fill="#03045e"/>
        <path id="Path_6434" data-name="Path 6434" d="M20.007,12.968a1.158,1.158,0,0,1-.821-.34,9.624,9.624,0,0,0-13.6,0,1.161,1.161,0,0,1-1.642-1.642,11.945,11.945,0,0,1,16.883,0,1.161,1.161,0,0,1-.821,1.982Z" fill="#03045e"/>
        <path id="Path_6435" data-name="Path 6435" d="M23.226,9.75a1.158,1.158,0,0,1-.82-.338,14.169,14.169,0,0,0-20.038,0A1.161,1.161,0,0,1,.729,7.765a16.492,16.492,0,0,1,23.317,0,1.161,1.161,0,0,1-.82,1.984Z" fill="#03045e"/>
      </g>
    </g>
  </g>
</svg>
